<?xml version="1.0" encoding="UTF-8" standalone="no" ?>
<!DOCTYPE svg PUBLIC "-//W3C//DTD SVG 1.1//EN" "http://www.w3.org/Graphics/SVG/1.1/DTD/svg11.dtd">
<svg xmlns="http://www.w3.org/2000/svg" xmlns:xlink="http://www.w3.org/1999/xlink" version="1.1" width="640" height="480" viewBox="0 0 640 480" xml:space="preserve">
<desc>Created with Fabric.js 3.6.6</desc>
<defs>
</defs>
<g transform="matrix(1 0 0 1 317.25 126.59)"  >
<g style=""   >
		<g transform="matrix(1 0 0 1 -208.24 91.62)"  >
<line style="stroke: rgb(0,0,0); stroke-opacity: 0; stroke-width: 2; stroke-dasharray: none; stroke-linecap: butt; stroke-dashoffset: 0; stroke-linejoin: miter; stroke-miterlimit: 4; fill: rgb(0,0,0); fill-rule: nonzero; opacity: 1;" vector-effect="non-scaling-stroke"  x1="0" y1="0" x2="0" y2="0" />
</g>
		<g transform="matrix(1.41 0 0 1.41 -200.15 24.18)"  >
<g style=""   >
		<g transform="matrix(4.36 0 0 4.36 -26.15 17.89)" id="path3"  >
<path style="stroke: rgb(0,0,0); stroke-opacity: 0; stroke-width: 1; stroke-dasharray: none; stroke-linecap: butt; stroke-dashoffset: 0; stroke-linejoin: miter; stroke-miterlimit: 4; fill: rgb(222,3,3); fill-rule: nonzero; opacity: 1;"  transform=" translate(-279, -163)" d="M 279 161 c -0.736 0 -1.375 0.405 -1.722 1 c -0.172 0.295 -0.278 0.635 -0.278 1 c 0 1.102 0.897 2 2 2 c 1.103 0 2 -0.898 2 -2 c 0 -0.365 -0.105 -0.705 -0.278 -1 C 280.375 161.405 279.737 161 279 161 z" stroke-linecap="round" />
</g>
		<g transform="matrix(4.36 0 0 4.45 34.87 18.12)" id="path5"  >
<path style="stroke: rgb(0,0,0); stroke-opacity: 0; stroke-width: 1; stroke-dasharray: none; stroke-linecap: butt; stroke-dashoffset: 0; stroke-linejoin: miter; stroke-miterlimit: 4; fill: rgb(222,3,1); fill-rule: nonzero; opacity: 1;"  transform=" translate(-293, -163)" d="M 293 161 c -0.736 0 -1.375 0.405 -1.722 1 c -0.172 0.295 -0.278 0.635 -0.278 1 c 0 1.102 0.897 2 2 2 c 1.103 0 2 -0.898 2 -2 c 0 -0.365 -0.105 -0.705 -0.278 -1 C 294.375 161.405 293.737 161 293 161 z" stroke-linecap="round" />
</g>
		<g transform="matrix(4.36 0 0 4.36 0 -3.09)" id="path7"  >
<path style="stroke: rgb(0,0,0); stroke-opacity: 0; stroke-width: 1; stroke-dasharray: none; stroke-linecap: butt; stroke-dashoffset: 0; stroke-linejoin: miter; stroke-miterlimit: 4; fill: rgb(222,3,3); fill-rule: nonzero; opacity: 1;"  transform=" translate(-285, -157.5)" d="M 299 159 v -1 l -6 -1.715 L 286 152 h -11 v 1 h 6 v 1 h -11 v 1 h 12 v 1 h -10 v 1 h 5 v 1 h -2 v 1 h -4 v 1 h 5 v 1 h -1 v 1 h -3 v 1 h 4 c 0 -0.352 0.072 -0.686 0.184 -1 c 0.414 -1.162 1.512 -2 2.816 -2 c 1.305 0 2.402 0.838 2.816 2 c 0.111 0.314 0.184 0.648 0.184 1 h 8 c 0 -0.352 0.072 -0.686 0.184 -1 c 0.414 -1.162 1.512 -2 2.816 -2 c 1.305 0 2.402 0.838 2.816 2 c 0.111 0.314 0.184 0.648 0.184 1 h 3 v -1 h 1 v -3 H 299 z" stroke-linecap="round" />
</g>
</g>
</g>
		<g transform="matrix(1.41 0 0 4 65.83 0)" style=""  >
		<text xml:space="preserve" font-family="'Oswald', sans-serif" font-size="47" font-style="normal" font-weight="bold" style="stroke: none; stroke-width: 3; stroke-dasharray: ; stroke-linecap: butt; stroke-dashoffset: 0; stroke-linejoin: miter; stroke-miterlimit: 4; fill: rgb(0,0,0); fill-rule: nonzero; opacity: 1; white-space: pre;" ><tspan x="-119.78" y="14.76" style="stroke-width: 1; font-style: normal; fill: rgb(0,0,0); ">R</tspan><tspan x="-91.63" y="14.76" style="stroke-width: 1; font-style: normal; fill: rgb(0,0,0); ">e</tspan><tspan x="-67.67" y="14.76" style="stroke-width: 1; font-style: normal; fill: rgb(0,0,0); ">n</tspan><tspan x="-42.86" y="14.76" style="stroke-width: 1; font-style: normal; fill: rgb(0,0,0); ">t</tspan><tspan x="-24.2" y="14.76" style="stroke-width: 1; font-style: normal; fill: rgb(0,0,0); ">W</tspan><tspan x="14.24" y="14.76" style="stroke-width: 1; font-style: normal; fill: rgb(0,0,0); ">h</tspan><tspan x="39.33" y="14.76" style="stroke-width: 1; font-style: normal; fill: rgb(0,0,0); ">e</tspan><tspan x="63.3" y="14.76" style="stroke-width: 1; font-style: normal; fill: rgb(0,0,0); ">e</tspan><tspan x="87.26" y="14.76" style="stroke-width: 1; font-style: normal; fill: rgb(0,0,0); ">l</tspan><tspan x="102.2" y="14.76" style="stroke-width: 1; font-style: normal; fill: rgb(0,0,0); ">s</tspan></text>
</g>
</g>
</g>
</svg>